<svg enable-background="new 0 0 64 64" height="64" viewBox="0 0 64 64" width="64" xmlns="http://www.w3.org/2000/svg"><g fill="none" stroke="#000" stroke-miterlimit="10" stroke-width="2"><path d="m56 45c4.19 0 7-2.81 7-7 0-4.189-2.81-9-7-9 0-10.475-9.525-18-20-18-9.271 0-17.348 6.211-19 15 0 0-1.232 0-2 0-5.238 0-9 4.762-9 10s3.762 9 9 9"/><path d="m29.999 11.752c-2.206-1.724-4.982-2.752-7.999-2.752-7.18 0-13 5.82-13 13 0 2.577.707 3.979 2 6"/><path d="m6 22h-6"/><path d="m22 6v-6"/><path d="m10 10-6-6"/><path d="m27 58c0 2.761 2.238 5 5 5s5-2.239 5-5-2.238-5-5-5h-30"/><path d="m40 44c0-2.761 2.238-5 5-5s5 2.239 5 5-2.238 5-5 5h-41"/></g></svg>